<svg id="Capa_1" data-name="Capa 1" xmlns="http://www.w3.org/2000/svg" viewBox="0 0 390.9 283.46"><defs><style>.cls-1{fill:#2ec7b8;}</style></defs><title>background</title><path class="cls-1" d="M120.14,285.6h59.21a33.89,33.89,0,0,1-3.8-2.29H120.14Z"/><path class="cls-1" d="M303.73,285.6h11.6l-1.91-2.29H302.58C303,284.07,303.36,284.83,303.73,285.6Z"/><path class="cls-1" d="M194.69,285.6h5.48c.36-.77.75-1.53,1.15-2.29h-6.63Z"/><path class="cls-1" d="M72.93,284.78c0,.28,0,.55-.05.82H89.3l-1.92-2.29H72.85A14.48,14.48,0,0,1,72.93,284.78Z"/><polygon class="cls-1" points="1.04 23.01 44.08 23.01 49.1 23.01 49.1 0.38 44.08 0.38 7 0.38 0.38 7 0.38 52.7 1.04 52.7 1.04 23.01"/><path class="cls-1" d="M4.46,84.2a51.22,51.22,0,0,0,51.21,51.2V33A51.26,51.26,0,0,0,4.46,84.2Z"/><path class="cls-1" d="M357.36,40.45,344.89,30,309.5.38H268.93V60.85h76v3.39a57.25,57.25,0,0,0,46.42,70.43v-113A57.1,57.1,0,0,0,357.36,40.45Z"/><path class="cls-1" d="M348.61,135.4a33.54,33.54,0,0,0-33.54-33.53V135.4h33.54Z"/><path class="cls-1" d="M381.54,190.66a32.37,32.37,0,0,0-22.89-55.26H326.29v64.74H356V248.2h35.34V218.8l-20.87-20.87A32.41,32.41,0,0,0,381.54,190.66Z"/><path class="cls-1" d="M344.89,209.73H258.84a32.26,32.26,0,0,0-10.09-17.92c.41-.38.82-.76,1.2-1.15a32.37,32.37,0,0,0-22.88-55.26H194.69V200a14.1,14.1,0,1,0-14.1,14.1,14.1,14.1,0,0,0,14.1-14.1V248.2h32.38a32.34,32.34,0,0,0,32.23-29.53l54.12,64.64h32.82V209.73Z"/><path class="cls-1" d="M57.69,269.55H42.46v13.76H72.85A15.23,15.23,0,0,0,57.69,269.55Z"/><path class="cls-1" d="M155.53,190.66a32.37,32.37,0,0,0-22.9-55.26H100.27v64.74H130V248.2h64.73l-50.27-50.27A32.36,32.36,0,0,0,155.53,190.66Z"/><polygon class="cls-1" points="44.08 209.64 25.71 209.64 44.08 231.58 87.38 283.31 120.14 283.31 120.14 209.64 44.08 209.64"/><path class="cls-1" d="M90.16,200a57.27,57.27,0,0,0-46.08-56.16,58,58,0,0,0-11.17-1.1A56.92,56.92,0,0,0,.38,152.87V200H90.16Z"/><path class="cls-1" d="M161.16,255.78a33.5,33.5,0,0,0,14.39,27.53h19.14V255.78Z"/><path class="cls-1" d="M88.08,36.8h32.38V.38H56a32.3,32.3,0,0,0,9.22,27A32.27,32.27,0,0,0,88.08,36.8Z"/><path class="cls-1" d="M194.69,2.19A18,18,0,0,0,194.6.38H130.22a18,18,0,0,0-.09,1.81V20.72h64.56Z"/><path class="cls-1" d="M100.27,135.4h94.42V73.34a32.38,32.38,0,0,0,62.53,11.79l50.27,50.27V70.67H259.43V41H194.69V22.6Z"/><polygon class="cls-1" points="130.13 20.72 130.13 60.23 163.2 60.23 130.13 20.72"/><circle class="cls-1" cx="92.26" cy="79" r="28.2"/><circle class="cls-1" cx="259.26" cy="121.3" r="14.1" transform="translate(-25.05 154.42) rotate(-31.72)"/><path class="cls-1" d="M259.26,30.87V.38H208.64A57.25,57.25,0,0,0,259.26,30.87Z"/><path class="cls-1" d="M252,252.79a57.22,57.22,0,0,0-50.63,30.52H302.58A57.23,57.23,0,0,0,252,252.79Z"/><path class="cls-1" d="M317.75,192.66V135.4H260.49A57.26,57.26,0,0,0,317.75,192.66Z"/></svg>