<svg id="Capa_1" data-name="Capa 1" xmlns="http://www.w3.org/2000/svg" viewBox="0 0 820.33 322.7"><title>logoBarcoFinal</title><path d="M85.39,101.54a38.63,38.63,0,0,1-38.64,38.65H8.09V5.5H46.75a38.65,38.65,0,0,1,27.32,66c-.46.47-.95.92-1.44,1.37a38.54,38.54,0,0,1,12.76,28.69"/><path d="M281.13,140.19V82.8H245.68V5.5h38.65A38.66,38.66,0,0,1,298.4,80.16l60,60Z"/><polygon points="124.98 140.19 237.73 140.19 124.98 5.5 124.98 140.19"/><path d="M341.62,275.39H307l17.89-21.66q2.64-3.24,4.43-5.61a43.89,43.89,0,0,0,2.72-4,11.13,11.13,0,0,0,1.9-5.64,8,8,0,0,0-2.54-6,8.68,8.68,0,0,0-6.27-2.44q-7.81,0-8.95,9.24h-7.74Q310.3,223,324.89,223a16.63,16.63,0,0,1,11.82,4.47,14.5,14.5,0,0,1,4.81,11.08,16.9,16.9,0,0,1-2.24,8.25,41,41,0,0,1-3.32,5q-2.19,2.88-5.52,6.82l-8,9.48h19.2Zm-45-5.81q-5.15,6.65-12.42,6.65t-12.49-6.65Q266,262.25,266,249.29q0-12.31,5.74-19.66Q276.9,223,284.2,223t12.46,6.64q5.73,7.34,5.74,20t-5.74,20m7.16-87.32a67.35,67.35,0,1,0,67.34,67.35,67.35,67.35,0,0,0-67.34-67.35"/><path d="M284.2,230q-4.53,0-7.54,5.54t-3,13.75q0,8.58,3,14.25t7.57,5.58q4.57,0,7.58-5.58t3-14q0-8.44-3-14T284.2,230"/><path d="M193.9,182.26V317a67.35,67.35,0,0,1,0-134.69"/><path d="M474.75,197.53h6.4c2.76,0,5.14-.9,5.14-4,0-2.49-1.89-3.77-5.14-3.77h-6.4Zm0-9.38h6.4c3,0,4.4-1.48,4.4-3.31,0-2.43-1.5-3.67-4.4-3.67h-6.4Zm-1.86-8.56h8.26c3.28,0,6.26,1.15,6.26,4.79a4.43,4.43,0,0,1-3.39,4.37v.06a4.57,4.57,0,0,1,4.13,4.76c0,1.86-.66,5.55-7,5.55h-8.26Z"/><rect x="502.21" y="179.59" width="1.86" height="19.53"/><polygon points="519.1 179.59 532.58 179.59 532.58 181.18 520.96 181.18 520.96 188.23 531.84 188.23 531.84 189.82 520.96 189.82 520.96 197.53 532.72 197.53 532.72 199.12 519.1 199.12 519.1 179.59"/><polygon points="546.23 179.59 548.31 179.59 559.69 196.11 559.75 196.11 559.75 179.59 561.61 179.59 561.61 199.12 559.53 199.12 548.15 182.6 548.09 182.6 548.09 199.12 546.23 199.12 546.23 179.59"/><path d="M579.23,191.46h7.69l-3.78-10Zm2.95-11.87h2.08l7.66,19.53h-2l-2.38-6.07h-8.89l-2.36,6.07h-2Z"/><polygon points="604.65 179.59 606.51 179.59 606.51 197.53 617.45 197.53 617.45 199.12 604.65 199.12 604.65 179.59"/><path d="M430.78,237.44h4c5.61,0,8-2.35,8-8.18s-2.43-8.21-8-8.18h-4Zm-1.86-17.95h6.76c5.88.14,9,3.37,9,9.77s-3.09,9.63-9,9.77h-6.76Z"/><polygon points="458.61 219.49 472.09 219.49 472.09 221.08 460.47 221.08 460.47 228.14 471.36 228.14 471.36 229.72 460.47 229.72 460.47 237.44 472.23 237.44 472.23 239.03 458.61 239.03 458.61 219.49"/><path d="M509.16,231.48h5.07l-2.47-7.17h-.05Zm.42-12H514l7.3,19.54h-4.46l-1.47-4.35H508L506.51,239h-4.35Z"/><path d="M538.22,228.33h4.71c1.91,0,3-.82,3-2.79s-1-2.71-3-2.71h-4.71Zm-4.29-8.84h10.53a5.37,5.37,0,0,1,5.72,5.39,4.81,4.81,0,0,1-3.1,4.9v.05c2.11.55,2.71,2.6,2.85,4.57.08,1.23.05,3.53.82,4.63h-4.29c-.52-1.23-.47-3.12-.69-4.68-.3-2-1.09-3-3.25-3h-4.3V239h-4.29Z"/><polygon points="568.45 223.1 562.6 223.1 562.6 219.49 578.6 219.49 578.6 223.1 572.75 223.1 572.75 239.03 568.45 239.03 568.45 223.1"/><polygon points="591.79 219.49 606.4 219.49 606.4 223.1 596.09 223.1 596.09 227.29 605.55 227.29 605.55 230.63 596.09 230.63 596.09 235.41 606.62 235.41 606.62 239.03 591.79 239.03 591.79 219.49"/><path d="M441.86,266a4.21,4.21,0,0,0-4.27-3.42c-3.85,0-5.3,3.28-5.3,6.7,0,3.25,1.45,6.54,5.3,6.54,2.63,0,4.11-1.81,4.44-4.38h4.15c-.43,4.87-3.8,8-8.59,8-6,0-9.6-4.52-9.6-10.15,0-5.8,3.56-10.32,9.6-10.32,4.3,0,7.91,2.52,8.43,7Z"/><path d="M468.81,275.79c3.86,0,5.31-3.29,5.31-6.54,0-3.42-1.45-6.7-5.31-6.7s-5.31,3.28-5.31,6.7c0,3.25,1.45,6.54,5.31,6.54m0-16.86c6.05,0,9.6,4.52,9.6,10.32,0,5.63-3.55,10.15-9.6,10.15s-9.6-4.52-9.6-10.15c0-5.8,3.56-10.32,9.6-10.32"/><polygon points="492.29 259.4 496.55 259.4 504.71 272.5 504.76 272.5 504.76 259.4 508.78 259.4 508.78 278.93 504.49 278.93 496.36 265.86 496.31 265.86 496.31 278.93 492.29 278.93 492.29 259.4"/><polygon points="527.83 263.01 521.97 263.01 521.97 259.4 537.98 259.4 537.98 263.01 532.12 263.01 532.12 278.93 527.83 278.93 527.83 263.01"/><polygon points="551.16 259.4 565.77 259.4 565.77 263.01 555.46 263.01 555.46 267.2 564.92 267.2 564.92 270.53 555.46 270.53 555.46 275.32 565.99 275.32 565.99 278.93 551.16 278.93 551.16 259.4"/><polygon points="579.84 259.4 585.88 259.4 590.45 272.83 590.5 272.83 594.83 259.4 600.87 259.4 600.87 278.93 596.85 278.93 596.85 265.09 596.8 265.09 592.01 278.93 588.7 278.93 583.91 265.23 583.86 265.23 583.86 278.93 579.84 278.93 579.84 259.4"/><path d="M619.89,268.59h3.34c2,0,3.77-.44,3.77-2.93s-1.78-2.92-3.77-2.92h-3.34Zm-4.3-9.19h8.81c4.87,0,6.76,3.09,6.76,6.26s-1.89,6.27-6.76,6.27h-4.51v7h-4.3Z"/><path d="M653.54,275.79c3.86,0,5.31-3.29,5.31-6.54,0-3.42-1.45-6.7-5.31-6.7s-5.31,3.28-5.31,6.7c0,3.25,1.45,6.54,5.31,6.54m0-16.86c6.05,0,9.6,4.52,9.6,10.32,0,5.63-3.55,10.15-9.6,10.15s-9.6-4.52-9.6-10.15c0-5.8,3.55-10.32,9.6-10.32"/><path d="M681.31,268.24H686c1.91,0,3-.83,3-2.79s-1-2.71-3-2.71h-4.71ZM677,259.4h10.54a5.36,5.36,0,0,1,5.71,5.39,4.81,4.81,0,0,1-3.09,4.9v.05c2.11.55,2.71,2.6,2.85,4.57.08,1.23.05,3.53.82,4.62h-4.3c-.52-1.23-.46-3.12-.68-4.68-.3-2.05-1.09-2.95-3.25-2.95h-4.3v7.63H677Z"/><path d="M715.84,257.65h-2.71l2.62-3.89h4.3Zm-3.21,13.73h5.07l-2.47-7.17h-.05Zm.42-12h4.4l7.3,19.53h-4.46l-1.47-4.35h-7.31L710,278.93h-4.35Z"/><polygon points="737.4 259.4 741.66 259.4 749.82 272.5 749.87 272.5 749.87 259.4 753.89 259.4 753.89 278.93 749.6 278.93 741.47 265.86 741.42 265.86 741.42 278.93 737.4 278.93 737.4 259.4"/><polygon points="768.61 259.4 783.22 259.4 783.22 263.01 772.91 263.01 772.91 267.2 782.37 267.2 782.37 270.53 772.91 270.53 772.91 275.32 783.44 275.32 783.44 278.93 768.61 278.93 768.61 259.4"/><path d="M806,275.79c3.86,0,5.31-3.29,5.31-6.54,0-3.42-1.45-6.7-5.31-6.7s-5.31,3.28-5.31,6.7c0,3.25,1.45,6.54,5.31,6.54m0-16.86c6.05,0,9.6,4.52,9.6,10.32,0,5.63-3.55,10.15-9.6,10.15s-9.6-4.52-9.6-10.15c0-5.8,3.55-10.32,9.6-10.32"/><path d="M430.78,317.25h4c5.61,0,8-2.35,8-8.18s-2.43-8.21-8-8.18h-4Zm-1.86-17.95h6.76c5.88.14,9,3.37,9,9.77s-3.09,9.63-9,9.77h-6.76Z"/><polygon points="458.61 299.31 472.09 299.31 472.09 300.89 460.47 300.89 460.47 307.95 471.36 307.95 471.36 309.54 460.47 309.54 460.47 317.25 472.23 317.25 472.23 318.84 458.61 318.84 458.61 299.31"/><polygon points="504.32 299.31 506.18 299.31 506.18 317.25 517.13 317.25 517.13 318.84 504.32 318.84 504.32 299.31"/><polygon points="529.96 299.31 543.45 299.31 543.45 300.89 531.82 300.89 531.82 307.95 542.71 307.95 542.71 309.54 531.82 309.54 531.82 317.25 543.58 317.25 543.58 318.84 529.96 318.84 529.96 299.31"/><path d="M565.06,297.75h-1.39l2.87-3.86h2.13Zm.25,19.91c5.14,0,7.33-4.32,7.33-8.59s-2.19-8.59-7.33-8.59S558,304.8,558,309.07s2.19,8.59,7.36,8.59m0-18.77c6.12,0,9.19,4.85,9.19,10.18s-3.07,10.18-9.19,10.18-9.22-4.84-9.22-10.18,3.06-10.18,9.22-10.18"/><polygon points="588.32 299.31 590.39 299.31 601.78 315.83 601.83 315.83 601.83 299.31 603.69 299.31 603.69 318.84 601.61 318.84 590.23 302.31 590.18 302.31 590.18 318.84 588.32 318.84 588.32 299.31"/><rect x="443.11" y="179.59" width="1.86" height="19.53"/><rect x="428.92" y="179.59" width="1.86" height="19.53"/></svg>