<svg id="Capa_1" data-name="Capa 1" xmlns="http://www.w3.org/2000/svg" viewBox="0 0 792 612"><title>logoBarco</title><polygon points="273.19 63.62 273.19 292.58 472.16 292.58 273.19 63.62"/><path d="M682.11,292.58,581.31,187.29A67.22,67.22,0,0,0,552.63,59.23H486.06v134.6H549.7v98.75Z"/><path d="M249.78,434.86A118.14,118.14,0,0,0,367.92,553V316.72A118.14,118.14,0,0,0,249.78,434.86Z"/><circle cx="585.18" cy="434.86" r="118.14"/><path d="M205.89,121.41A63.09,63.09,0,0,0,143,58.5H69.35V292.58H143a62.82,62.82,0,0,0,31.82-117A63,63,0,0,0,205.89,121.41Z"/></svg>